<svg width="84" height="20" viewBox="0 0 84 20" fill="none" xmlns="http://www.w3.org/2000/svg">
<g id="logo">
<g id="logo_2">
<g id="Group 13">
<path id="Fill 1" fill-rule="evenodd" clip-rule="evenodd" d="M33.1683 7.39169C33.0793 7.47469 32.9683 7.51669 32.8353 7.51669H31.6683C31.4903 7.51669 31.3513 7.48369 31.2513 7.41669C31.1513 7.34969 31.0623 7.24969 30.9843 7.11669C30.7963 6.80569 30.5243 6.55569 30.1683 6.36669C29.8123 6.17769 29.3293 6.08369 28.7183 6.08369C28.1183 6.08369 27.6123 6.20569 27.2013 6.44969C26.7903 6.69469 26.5853 7.02269 26.5853 7.43369C26.5853 7.76669 26.6823 8.02469 26.8763 8.20869C27.0713 8.39169 27.3743 8.54469 27.7853 8.66669C28.1953 8.78869 28.8683 8.94969 29.8023 9.15069C31.1463 9.43869 32.1183 9.84469 32.7183 10.3667C33.3183 10.8887 33.6183 11.6057 33.6183 12.5167C33.6183 13.1837 33.4243 13.7807 33.0353 14.3077C32.6453 14.8357 32.0873 15.2497 31.3603 15.5497C30.6323 15.8497 29.7793 15.9997 28.8013 15.9997C27.9683 15.9997 27.1903 15.8667 26.4683 15.5997C25.7463 15.3327 25.1623 14.9527 24.7183 14.4587C24.2743 13.9637 24.0353 13.3997 24.0013 12.7667C23.9903 12.6327 24.0293 12.5247 24.1183 12.4417C24.2073 12.3587 24.3183 12.3167 24.4513 12.3167H25.6183C25.7963 12.3167 25.9383 12.3497 26.0433 12.4167C26.1483 12.4837 26.2353 12.5837 26.3023 12.7167C26.4903 13.0837 26.7653 13.3747 27.1263 13.5917C27.4873 13.8087 28.0463 13.9167 28.8013 13.9167C29.5343 13.9167 30.1463 13.7997 30.6353 13.5667C31.1243 13.3337 31.3683 12.9827 31.3683 12.5167C31.3683 12.2497 31.2733 12.0357 31.0853 11.8747C30.8963 11.7137 30.6293 11.5807 30.2853 11.4747C29.9403 11.3697 29.4183 11.2337 28.7183 11.0667C28.4403 11.0107 28.0793 10.9277 27.6353 10.8167C26.4683 10.5277 25.6263 10.1337 25.1103 9.63369C24.5933 9.13269 24.3353 8.39969 24.3353 7.43369C24.3353 6.77769 24.5263 6.18869 24.9103 5.66669C25.2933 5.14469 25.8183 4.73569 26.4853 4.44169C27.1523 4.14769 27.8963 3.99969 28.7183 3.99969C29.6513 3.99969 30.4603 4.15869 31.1433 4.47469C31.8263 4.79169 32.3463 5.18969 32.7013 5.66669C33.0573 6.14469 33.2513 6.61069 33.2853 7.06669C33.2963 7.19969 33.2573 7.30869 33.1683 7.39169" fill="black"/>
<path id="Fill 3" fill-rule="evenodd" clip-rule="evenodd" d="M44.9745 4.29999C45.0635 4.38899 45.1075 4.49499 45.1075 4.61699V15.383C45.1075 15.505 45.0635 15.611 44.9745 15.7C44.8855 15.789 44.7795 15.833 44.6575 15.833H43.3075C43.1855 15.833 43.0795 15.789 42.9915 15.7C42.9025 15.611 42.8575 15.505 42.8575 15.383V10.983H37.8245V15.383C37.8245 15.505 37.7795 15.611 37.6915 15.7C37.6025 15.789 37.4965 15.833 37.3745 15.833H36.0245C35.9025 15.833 35.7965 15.791 35.7085 15.708C35.6185 15.625 35.5745 15.516 35.5745 15.383V4.61699C35.5745 4.49499 35.6185 4.38899 35.7085 4.29999C35.7965 4.21099 35.9025 4.16699 36.0245 4.16699H37.3745C37.4965 4.16699 37.6025 4.21099 37.6915 4.29999C37.7795 4.38899 37.8245 4.49499 37.8245 4.61699V8.89999H42.8575V4.61699C42.8575 4.49499 42.9025 4.38899 42.9915 4.29999C43.0795 4.21099 43.1855 4.16699 43.3075 4.16699H44.6575C44.7795 4.16699 44.8855 4.21099 44.9745 4.29999" fill="black"/>
<path id="Fill 5" fill-rule="evenodd" clip-rule="evenodd" d="M55.6476 5.13338C56.3806 5.77738 56.7476 6.67238 56.7476 7.81638C56.7476 8.62738 56.5586 9.31938 56.1806 9.89138C55.8026 10.4644 55.2586 10.8894 54.5476 11.1664L56.8476 15.2834C56.8806 15.3494 56.8976 15.4114 56.8976 15.4664C56.8976 15.5664 56.8616 15.6524 56.7896 15.7244C56.7166 15.7974 56.6306 15.8334 56.5306 15.8334H55.1146C54.7916 15.8334 54.5526 15.6834 54.3976 15.3834L52.2146 11.4994H49.9976V15.3834C49.9976 15.5054 49.9536 15.6104 49.8646 15.7004C49.7746 15.7884 49.6696 15.8334 49.5476 15.8334H48.1976C48.0756 15.8334 47.9696 15.7884 47.8816 15.7004C47.7916 15.6104 47.7476 15.5054 47.7476 15.3834V4.61638C47.7476 4.49438 47.7916 4.38938 47.8816 4.30038C47.9696 4.21138 48.0756 4.16638 48.1976 4.16638H52.4976C53.8646 4.16638 54.9146 4.48938 55.6476 5.13338ZM52.4146 9.41638C53.0916 9.41638 53.6086 9.29738 53.9646 9.05838C54.3196 8.81938 54.4976 8.40538 54.4976 7.81638C54.4976 7.22738 54.3226 6.81938 53.9726 6.59138C53.6226 6.36438 53.1026 6.25038 52.4146 6.25038H49.9976V9.41638H52.4146Z" fill="black"/>
<path id="Fill 7" fill-rule="evenodd" clip-rule="evenodd" d="M59.0459 15.7C58.9569 15.611 58.9119 15.505 58.9119 15.383V4.61699C58.9119 4.49499 58.9569 4.38899 59.0459 4.29999C59.1349 4.21099 59.2399 4.16699 59.3629 4.16699H60.7119C60.8339 4.16699 60.9399 4.21099 61.0289 4.29999C61.1179 4.38899 61.1629 4.49499 61.1629 4.61699V15.383C61.1629 15.505 61.1179 15.611 61.0289 15.7C60.9399 15.789 60.8339 15.833 60.7119 15.833H59.3629C59.2399 15.833 59.1349 15.789 59.0459 15.7" fill="black"/>
<path id="Fill 9" fill-rule="evenodd" clip-rule="evenodd" d="M70.7185 15.45L66.0525 8.51699V15.383C66.0525 15.505 66.0075 15.611 65.9185 15.7C65.8295 15.789 65.7245 15.833 65.6025 15.833H64.2525C64.1295 15.833 64.0245 15.789 63.9355 15.7C63.8465 15.611 63.8025 15.505 63.8025 15.383V4.61699C63.8025 4.49499 63.8465 4.38899 63.9355 4.29999C64.0245 4.21099 64.1295 4.16699 64.2525 4.16699H65.4185C65.6745 4.16699 65.8905 4.29499 66.0685 4.54999L70.7355 11.483V4.61699C70.7355 4.49499 70.7795 4.38899 70.8685 4.29999C70.9575 4.21099 71.0625 4.16699 71.1845 4.16699H72.5355C72.6575 4.16699 72.7625 4.21099 72.8515 4.29999C72.9405 4.38899 72.9845 4.49499 72.9845 4.61699V15.383C72.9845 15.505 72.9405 15.611 72.8515 15.7C72.7625 15.789 72.6575 15.833 72.5355 15.833H71.3685C71.1125 15.833 70.8965 15.706 70.7185 15.45" fill="black"/>
<path id="Fill 11" fill-rule="evenodd" clip-rule="evenodd" d="M77.8665 13.7498H83.3825C83.5045 13.7498 83.6105 13.7938 83.6995 13.8828C83.7885 13.9718 83.8325 14.0778 83.8325 14.1998V15.3828C83.8325 15.5058 83.7885 15.6108 83.6995 15.6998C83.6105 15.7888 83.5045 15.8328 83.3825 15.8328H76.0665C75.9445 15.8328 75.8385 15.7888 75.7495 15.6998C75.6605 15.6108 75.6165 15.5058 75.6165 15.3828V4.61681C75.6165 4.49481 75.6605 4.38881 75.7495 4.29981C75.8385 4.21081 75.9445 4.16681 76.0665 4.16681H83.2495C83.3715 4.16681 83.4775 4.21081 83.5665 4.29981C83.6555 4.38881 83.6995 4.49481 83.6995 4.61681V5.79981C83.6995 5.92281 83.6555 6.02781 83.5665 6.11681C83.4775 6.20581 83.3715 6.24981 83.2495 6.24981H77.8665V8.89981H82.8835C83.0055 8.89981 83.1105 8.94481 83.1995 9.03381C83.2885 9.12281 83.3335 9.22781 83.3335 9.34981V10.5328C83.3335 10.6558 83.2885 10.7608 83.1995 10.8498C83.1105 10.9388 83.0055 10.9838 82.8835 10.9838H77.8665V13.7498Z" fill="black"/>
</g>
</g>
<path id="Page 1" fill-rule="evenodd" clip-rule="evenodd" d="M5.56081 0L0 5.08587L9.80115 19.9992L19.6023 5.08587L14.0425 0H5.56081ZM6.12742 1.46188H13.0272V4.47342H2.83599L6.12742 1.46188ZM14.4901 2.39129L16.7653 4.47342H14.4901V2.39129ZM10.5326 5.93628H17.2929L10.5326 16.2231V5.93628ZM2.30937 5.93628H9.06972V9.22381H4.47049L2.30937 5.93628ZM5.43208 10.6867H9.06972V16.2231L5.43208 10.6867Z" fill="black"/>
</g>
</svg>
