<svg width="80" height="55" viewBox="0 0 80 55" fill="none" xmlns="http://www.w3.org/2000/svg">
<g id="Group 2607736">
<g id="logo">
<g id="Group 13">
<path id="Fill 1" fill-rule="evenodd" clip-rule="evenodd" d="M12.285 43.2848C12.1663 43.3956 12.0181 43.4517 11.8406 43.4517H10.2832C10.0457 43.4517 9.86017 43.4076 9.72671 43.3182C9.59326 43.2288 9.47448 43.0953 9.37039 42.9178C9.11949 42.5028 8.7565 42.1692 8.2814 41.9169C7.8063 41.6647 7.16171 41.5393 6.34631 41.5393C5.54558 41.5393 4.8703 41.7021 4.3218 42.0277C3.7733 42.3547 3.49972 42.7924 3.49972 43.3409C3.49972 43.7853 3.62917 44.1296 3.88807 44.3752C4.14831 44.6194 4.55268 44.8236 5.10117 44.9864C5.64834 45.1492 6.54649 45.3641 7.79295 45.6323C9.58659 46.0167 10.8838 46.5585 11.6845 47.2551C12.4852 47.9517 12.8856 48.9086 12.8856 50.1244C12.8856 51.0145 12.6267 51.8113 12.1075 52.5146C11.5871 53.2192 10.8424 53.7717 9.87218 54.1721C8.90063 54.5724 7.76226 54.7726 6.45707 54.7726C5.3454 54.7726 4.30712 54.5951 3.34358 54.2388C2.38003 53.8825 1.60066 53.3753 1.00812 52.7161C0.415582 52.0555 0.0966249 51.3028 0.0512503 50.458C0.0365703 50.2792 0.0886176 50.1351 0.207392 50.0243C0.326167 49.9135 0.474302 49.8575 0.651796 49.8575H2.20921C2.44676 49.8575 2.63627 49.9015 2.77639 49.9909C2.91652 50.0803 3.03263 50.2138 3.12204 50.3913C3.37294 50.8811 3.73994 51.2694 4.22171 51.559C4.70348 51.8486 5.44949 51.9928 6.45707 51.9928C7.4353 51.9928 8.25204 51.8366 8.90463 51.5257C9.55723 51.2147 9.88285 50.7463 9.88285 50.1244C9.88285 49.7681 9.75607 49.4825 9.50518 49.2676C9.25295 49.0527 8.89662 48.8753 8.43754 48.7338C7.97712 48.5937 7.28049 48.4122 6.34631 48.1893C5.9753 48.1146 5.49353 48.0038 4.90099 47.8557C3.34358 47.47 2.21989 46.9442 1.53126 46.2769C0.841302 45.6083 0.496989 44.6301 0.496989 43.3409C0.496989 42.4654 0.751887 41.6794 1.26435 40.9827C1.77548 40.2861 2.47612 39.7403 3.36626 39.3479C4.25641 38.9556 5.24931 38.7581 6.34631 38.7581C7.59144 38.7581 8.67109 38.9702 9.58258 39.392C10.4941 39.815 11.188 40.3462 11.6618 40.9827C12.1369 41.6207 12.3958 42.2426 12.4412 42.8511C12.4559 43.0286 12.4038 43.1741 12.285 43.2848Z" fill="#715859"/>
<path id="Fill 3" fill-rule="evenodd" clip-rule="evenodd" d="M28.0408 39.1589C28.1596 39.2777 28.2183 39.4192 28.2183 39.582V53.9497C28.2183 54.1125 28.1596 54.254 28.0408 54.3728C27.9221 54.4915 27.7806 54.5503 27.6178 54.5503H25.8161C25.6533 54.5503 25.5119 54.4915 25.3944 54.3728C25.2757 54.254 25.2156 54.1125 25.2156 53.9497V48.0777H18.4988V53.9497C18.4988 54.1125 18.4388 54.254 18.3213 54.3728C18.2026 54.4915 18.0611 54.5503 17.8983 54.5503H16.0966C15.9338 54.5503 15.7924 54.4942 15.6749 54.3834C15.5548 54.2727 15.4961 54.1272 15.4961 53.9497V39.582C15.4961 39.4192 15.5548 39.2777 15.6749 39.1589C15.7924 39.0402 15.9338 38.9814 16.0966 38.9814H17.8983C18.0611 38.9814 18.2026 39.0402 18.3213 39.1589C18.4388 39.2777 18.4988 39.4192 18.4988 39.582V45.2979H25.2156V39.582C25.2156 39.4192 25.2757 39.2777 25.3944 39.1589C25.5119 39.0402 25.6533 38.9814 25.8161 38.9814H27.6178C27.7806 38.9814 27.9221 39.0402 28.0408 39.1589Z" fill="#715859"/>
<path id="Fill 5" fill-rule="evenodd" clip-rule="evenodd" d="M42.2851 40.2715C43.2633 41.1309 43.7531 42.3253 43.7531 43.8521C43.7531 44.9344 43.5009 45.8579 42.9964 46.6212C42.492 47.3859 41.766 47.9531 40.8171 48.3228L43.8866 53.8171C43.9306 53.9052 43.9533 53.9879 43.9533 54.0613C43.9533 54.1948 43.9052 54.3096 43.8092 54.4056C43.7117 54.5031 43.597 54.5511 43.4635 54.5511H41.5738C41.1427 54.5511 40.8238 54.3509 40.6169 53.9506L37.7036 48.7672H34.7449V53.9506C34.7449 54.1134 34.6862 54.2535 34.5674 54.3736C34.4473 54.4911 34.3072 54.5511 34.1444 54.5511H32.3427C32.1799 54.5511 32.0385 54.4911 31.921 54.3736C31.8009 54.2535 31.7422 54.1134 31.7422 53.9506V39.5815C31.7422 39.4187 31.8009 39.2786 31.921 39.1598C32.0385 39.041 32.1799 38.981 32.3427 38.981H38.0813C39.9056 38.981 41.3069 39.412 42.2851 40.2715ZM37.9705 45.987C38.874 45.987 39.5639 45.8282 40.039 45.5093C40.5128 45.1903 40.7503 44.6378 40.7503 43.8518C40.7503 43.0657 40.5168 42.5212 40.0497 42.2169C39.5826 41.914 38.8887 41.7619 37.9705 41.7619H34.7449V45.987H37.9705Z" fill="#715859"/>
<path id="Fill 7" fill-rule="evenodd" clip-rule="evenodd" d="M46.8204 54.3728C46.7017 54.254 46.6416 54.1125 46.6416 53.9497V39.582C46.6416 39.4192 46.7017 39.2777 46.8204 39.1589C46.9392 39.0402 47.0793 38.9814 47.2435 38.9814H49.0438C49.2066 38.9814 49.3481 39.0402 49.4668 39.1589C49.5856 39.2777 49.6457 39.4192 49.6457 39.582V53.9497C49.6457 54.1125 49.5856 54.254 49.4668 54.3728C49.3481 54.4915 49.2066 54.5503 49.0438 54.5503H47.2435C47.0793 54.5503 46.9392 54.4915 46.8204 54.3728Z" fill="#715859"/>
<path id="Fill 9" fill-rule="evenodd" clip-rule="evenodd" d="M62.3977 54.0391L56.1707 44.7867V53.9497C56.1707 54.1125 56.1106 54.254 55.9919 54.3728C55.8731 54.4915 55.733 54.5503 55.5702 54.5503H53.7685C53.6044 54.5503 53.4642 54.4915 53.3455 54.3728C53.2267 54.254 53.168 54.1125 53.168 53.9497V39.582C53.168 39.4192 53.2267 39.2777 53.3455 39.1589C53.4642 39.0402 53.6044 38.9814 53.7685 38.9814H55.3246C55.6662 38.9814 55.9545 39.1523 56.1921 39.4926L62.4204 48.745V39.582C62.4204 39.4192 62.4791 39.2777 62.5979 39.1589C62.7166 39.0402 62.8568 38.9814 63.0196 38.9814H64.8226C64.9854 38.9814 65.1255 39.0402 65.2443 39.1589C65.3631 39.2777 65.4218 39.4192 65.4218 39.582V53.9497C65.4218 54.1125 65.3631 54.254 65.2443 54.3728C65.1255 54.4915 64.9854 54.5503 64.8226 54.5503H63.2651C62.9235 54.5503 62.6352 54.3808 62.3977 54.0391Z" fill="#715859"/>
<path id="Fill 11" fill-rule="evenodd" clip-rule="evenodd" d="M71.9363 51.7704H79.2977C79.4605 51.7704 79.602 51.8291 79.7207 51.9479C79.8395 52.0667 79.8982 52.2081 79.8982 52.3709V53.9497C79.8982 54.1139 79.8395 54.254 79.7207 54.3728C79.602 54.4915 79.4605 54.5503 79.2977 54.5503H69.5341C69.3713 54.5503 69.2299 54.4915 69.1111 54.3728C68.9923 54.254 68.9336 54.1139 68.9336 53.9497V39.582C68.9336 39.4192 68.9923 39.2777 69.1111 39.1589C69.2299 39.0402 69.3713 38.9814 69.5341 38.9814H79.1202C79.283 38.9814 79.4245 39.0402 79.5432 39.1589C79.662 39.2777 79.7207 39.4192 79.7207 39.582V41.1608C79.7207 41.3249 79.662 41.465 79.5432 41.5838C79.4245 41.7026 79.283 41.7613 79.1202 41.7613H71.9363V45.2979H78.6317C78.7946 45.2979 78.9347 45.3579 79.0535 45.4767C79.1722 45.5955 79.2323 45.7356 79.2323 45.8984V47.4772C79.2323 47.6413 79.1722 47.7814 79.0535 47.9002C78.9347 48.019 78.7946 48.079 78.6317 48.079H71.9363V51.7704Z" fill="#715859"/>
</g>
</g>
<path id="Page 1" fill-rule="evenodd" clip-rule="evenodd" d="M34.1594 0.947754L26.7383 7.73508L39.8184 27.6376L52.8985 7.73508L45.4786 0.947754H34.1594ZM34.9155 2.89854H44.1237V6.91757H30.523L34.9155 2.89854ZM46.0759 4.1392L49.1123 6.9179H46.0759V4.1392ZM40.7945 8.86948H49.8165L40.7945 22.5977V8.86948ZM29.8201 8.86948H38.8421V13.2568H32.7043L29.8201 8.86948ZM33.9877 15.2095H38.8423V22.5981L33.9877 15.2095Z" fill="#715859"/>
</g>
</svg>
